<?xml version="1.0" standalone="no"?>
<!DOCTYPE svg PUBLIC "-//W3C//DTD SVG 20010904//EN"
 "http://www.w3.org/TR/2001/REC-SVG-20010904/DTD/svg10.dtd">
<svg version="1.0" xmlns="http://www.w3.org/2000/svg"
 width="198.000000pt" height="155.000000pt" viewBox="0 0 198.000000 155.000000"
 preserveAspectRatio="xMidYMid meet">

<g transform="translate(0.000000,155.000000) scale(0.100000,-0.100000)"
fill="#000000" stroke="none">
<path d="M474 919 c-209 -304 -383 -558 -387 -566 -7 -11 19 -13 154 -11 l162
3 204 315 c232 359 239 370 256 370 7 0 57 -67 112 -150 55 -82 102 -149 105
-149 7 0 142 192 154 218 7 17 2 32 -27 74 -79 112 -333 441 -343 444 -7 2
-182 -244 -390 -548z"/>
<path d="M1477 988 c-51 -79 -151 -233 -222 -343 -71 -110 -134 -203 -139
-207 -17 -11 -38 15 -136 162 -92 138 -93 139 -109 117 -80 -105 -141 -199
-141 -216 0 -26 355 -501 374 -501 12 0 131 171 724 1038 l63 92 -161 0 -160
0 -93 -142z"/>
</g>
</svg>
