<?xml version="1.0" encoding="UTF-8"?>
<svg xmlns="http://www.w3.org/2000/svg" width="296" height="76" viewBox="0 0 296 76" fill="none">
  <path d="M131.68 21.875V56H125.211L110.703 32.3281V56H104.258V21.875H110.703L125.258 45.5703V21.875H131.68ZM144.816 30.6406V56H138.605V30.6406H144.816ZM138.183 24.0078C138.183 23.0859 138.496 22.3203 139.121 21.7109C139.761 21.1016 140.621 20.7969 141.699 20.7969C142.777 20.7969 143.628 21.1016 144.253 21.7109C144.894 22.3203 145.214 23.0859 145.214 24.0078C145.214 24.9141 144.894 25.6719 144.253 26.2812C143.628 26.8906 142.777 27.1953 141.699 27.1953C140.621 27.1953 139.761 26.8906 139.121 26.2812C138.496 25.6719 138.183 24.9141 138.183 24.0078ZM157.39 35.8203V56H151.202V30.6406H157.062L157.39 35.8203ZM165.101 30.4766L165.007 36.2422C164.663 36.1797 164.272 36.1328 163.835 36.1016C163.413 36.0703 163.015 36.0547 162.64 36.0547C161.687 36.0547 160.851 36.1875 160.132 36.4531C159.413 36.7031 158.812 37.0703 158.327 37.5547C157.858 38.0391 157.499 38.6328 157.249 39.3359C156.999 40.0234 156.858 40.8047 156.827 41.6797L155.491 41.5156C155.491 39.9062 155.655 38.4141 155.983 37.0391C156.312 35.6641 156.788 34.4609 157.413 33.4297C158.038 32.3984 158.819 31.6016 159.757 31.0391C160.71 30.4609 161.804 30.1719 163.038 30.1719C163.382 30.1719 163.749 30.2031 164.14 30.2656C164.546 30.3125 164.866 30.3828 165.101 30.4766ZM175.143 35.8438V56H168.956V30.6406H174.792L175.143 35.8438ZM174.229 42.4062H172.331C172.331 40.6406 172.542 39.0156 172.963 37.5312C173.401 36.0469 174.042 34.7578 174.885 33.6641C175.729 32.5547 176.768 31.6953 178.003 31.0859C179.253 30.4766 180.698 30.1719 182.338 30.1719C183.479 30.1719 184.526 30.3438 185.479 30.6875C186.432 31.0156 187.253 31.5391 187.94 32.2578C188.643 32.9609 189.182 33.8828 189.557 35.0234C189.932 36.1484 190.12 37.5 190.12 39.0781V56H183.932V39.7109C183.932 38.5234 183.76 37.5938 183.417 36.9219C183.088 36.25 182.612 35.7812 181.987 35.5156C181.362 35.2344 180.612 35.0938 179.737 35.0938C178.768 35.0938 177.932 35.2891 177.229 35.6797C176.542 36.0547 175.971 36.5781 175.518 37.25C175.081 37.9219 174.753 38.6953 174.534 39.5703C174.331 40.4453 174.229 41.3906 174.229 42.4062ZM189.651 41.2578L187.096 41.7266C187.112 40.1328 187.331 38.6406 187.753 37.25C188.174 35.8438 188.792 34.6172 189.604 33.5703C190.432 32.5078 191.456 31.6797 192.674 31.0859C193.909 30.4766 195.331 30.1719 196.94 30.1719C198.19 30.1719 199.315 30.3516 200.315 30.7109C201.331 31.0547 202.198 31.6094 202.917 32.375C203.635 33.125 204.182 34.1016 204.557 35.3047C204.948 36.5078 205.143 37.9766 205.143 39.7109V56H198.909V39.6875C198.909 38.4531 198.737 37.5078 198.393 36.8516C198.065 36.1953 197.588 35.7422 196.963 35.4922C196.338 35.2266 195.604 35.0938 194.76 35.0938C193.901 35.0938 193.151 35.2578 192.51 35.5859C191.885 35.8984 191.354 36.3359 190.917 36.8984C190.495 37.4609 190.174 38.1172 189.956 38.8672C189.753 39.6016 189.651 40.3984 189.651 41.2578ZM225.147 50.6094V38.9141C225.147 38.0547 224.998 37.3125 224.701 36.6875C224.404 36.0625 223.951 35.5781 223.342 35.2344C222.732 34.8906 221.959 34.7188 221.022 34.7188C220.193 34.7188 219.467 34.8594 218.842 35.1406C218.232 35.4219 217.764 35.8203 217.436 36.3359C217.107 36.8359 216.943 37.4141 216.943 38.0703H210.732C210.732 37.0234 210.982 36.0312 211.482 35.0938C211.982 34.1406 212.693 33.2969 213.615 32.5625C214.553 31.8125 215.67 31.2266 216.967 30.8047C218.279 30.3828 219.748 30.1719 221.373 30.1719C223.295 30.1719 225.006 30.5 226.506 31.1562C228.022 31.7969 229.209 32.7656 230.068 34.0625C230.943 35.3594 231.381 36.9922 231.381 38.9609V50.0234C231.381 51.2891 231.459 52.375 231.615 53.2812C231.787 54.1719 232.037 54.9453 232.365 55.6016V56H226.061C225.764 55.3594 225.537 54.5469 225.381 53.5625C225.225 52.5625 225.147 51.5781 225.147 50.6094ZM226.014 40.5547L226.061 44.2344H222.147C221.178 44.2344 220.326 44.3359 219.592 44.5391C218.857 44.7266 218.256 45.0078 217.787 45.3828C217.318 45.7422 216.967 46.1797 216.732 46.6953C216.498 47.1953 216.381 47.7656 216.381 48.4062C216.381 49.0312 216.522 49.5938 216.803 50.0938C217.1 50.5938 217.522 50.9922 218.068 51.2891C218.631 51.5703 219.287 51.7109 220.037 51.7109C221.131 51.7109 222.084 51.4922 222.897 51.0547C223.709 50.6016 224.342 50.0547 224.795 49.4141C225.248 48.7734 225.49 48.1641 225.522 47.5859L227.303 50.2578C227.084 50.8984 226.756 51.5781 226.318 52.2969C225.881 53.0156 225.318 53.6875 224.631 54.3125C223.943 54.9375 223.115 55.4531 222.147 55.8594C221.178 56.2656 220.053 56.4688 218.772 56.4688C217.131 56.4688 215.662 56.1406 214.365 55.4844C213.068 54.8281 212.045 53.9297 211.295 52.7891C210.545 51.6484 210.17 50.3516 210.17 48.8984C210.17 47.5547 210.42 46.3672 210.92 45.3359C211.42 44.3047 212.162 43.4375 213.147 42.7344C214.131 42.0156 215.35 41.4766 216.803 41.1172C218.272 40.7422 219.951 40.5547 221.842 40.5547H226.014ZM251.408 50.6094V38.9141C251.408 38.0547 251.259 37.3125 250.962 36.6875C250.666 36.0625 250.212 35.5781 249.603 35.2344C248.994 34.8906 248.22 34.7188 247.283 34.7188C246.455 34.7188 245.728 34.8594 245.103 35.1406C244.494 35.4219 244.025 35.8203 243.697 36.3359C243.369 36.8359 243.205 37.4141 243.205 38.0703H236.994C236.994 37.0234 237.244 36.0312 237.744 35.0938C238.244 34.1406 238.955 33.2969 239.877 32.5625C240.814 31.8125 241.931 31.2266 243.228 30.8047C244.541 30.3828 246.009 30.1719 247.634 30.1719C249.556 30.1719 251.267 30.5 252.767 31.1562C254.283 31.7969 255.47 32.7656 256.33 34.0625C257.205 35.3594 257.642 36.9922 257.642 38.9609V50.0234C257.642 51.2891 257.72 52.375 257.877 53.2812C258.048 54.1719 258.298 54.9453 258.627 55.6016V56H252.322C252.025 55.3594 251.798 54.5469 251.642 53.5625C251.486 52.5625 251.408 51.5781 251.408 50.6094ZM252.275 40.5547L252.322 44.2344H248.408C247.439 44.2344 246.587 44.3359 245.853 44.5391C245.119 44.7266 244.517 45.0078 244.048 45.3828C243.58 45.7422 243.228 46.1797 242.994 46.6953C242.759 47.1953 242.642 47.7656 242.642 48.4062C242.642 49.0312 242.783 49.5938 243.064 50.0938C243.361 50.5938 243.783 50.9922 244.33 51.2891C244.892 51.5703 245.548 51.7109 246.298 51.7109C247.392 51.7109 248.345 51.4922 249.158 51.0547C249.97 50.6016 250.603 50.0547 251.056 49.4141C251.509 48.7734 251.752 48.1641 251.783 47.5859L253.564 50.2578C253.345 50.8984 253.017 51.5781 252.58 52.2969C252.142 53.0156 251.58 53.6875 250.892 54.3125C250.205 54.9375 249.377 55.4531 248.408 55.8594C247.439 56.2656 246.314 56.4688 245.033 56.4688C243.392 56.4688 241.923 56.1406 240.627 55.4844C239.33 54.8281 238.306 53.9297 237.556 52.7891C236.806 51.6484 236.431 50.3516 236.431 48.8984C236.431 47.5547 236.681 46.3672 237.181 45.3359C237.681 44.3047 238.423 43.4375 239.408 42.7344C240.392 42.0156 241.611 41.4766 243.064 41.1172C244.533 40.7422 246.212 40.5547 248.103 40.5547H252.275ZM269.771 36.0547V56H263.583V30.6406H269.396L269.771 36.0547ZM268.786 42.4062H266.958C266.974 40.5625 267.224 38.8906 267.708 37.3906C268.193 35.8906 268.872 34.6016 269.747 33.5234C270.638 32.4453 271.693 31.6172 272.911 31.0391C274.13 30.4609 275.489 30.1719 276.989 30.1719C278.208 30.1719 279.31 30.3438 280.294 30.6875C281.278 31.0312 282.122 31.5781 282.825 32.3281C283.544 33.0781 284.091 34.0625 284.466 35.2812C284.857 36.4844 285.052 37.9688 285.052 39.7344V56H278.818V39.6875C278.818 38.5312 278.646 37.6172 278.302 36.9453C277.974 36.2734 277.489 35.7969 276.849 35.5156C276.224 35.2344 275.45 35.0938 274.528 35.0938C273.575 35.0938 272.739 35.2891 272.021 35.6797C271.318 36.0547 270.724 36.5781 270.239 37.25C269.771 37.9219 269.411 38.6953 269.161 39.5703C268.911 40.4453 268.786 41.3906 268.786 42.4062Z" fill="#D03B45"></path>
  <path d="M40.3638 1.11292L57.9613 24.503C58.7513 25.5532 58.766 26.9953 57.9973 28.0613L50.5061 38.45L40.3735 23.5173C39.9716 22.925 39.0957 22.9344 38.7066 23.5353L16.5692 57.7215H0L38.7396 1.14911C39.1262 0.58469 39.9526 0.566273 40.3638 1.11292Z" fill="#D03B45"></path>
  <path d="M50.926 74.6085L33.3285 51.2184C32.5384 50.1682 32.5238 48.7261 33.2925 47.6602L40.7837 37.2715L50.9163 52.2041C51.3182 52.7964 52.1941 52.787 52.5832 52.1862L74.7206 17.9999H91.2898L52.5502 74.5723C52.1636 75.1367 51.3372 75.1552 50.926 74.6085Z" fill="#D03B45"></path>
</svg>
