<?xml version="1.0" standalone="no"?>
<!DOCTYPE svg PUBLIC "-//W3C//DTD SVG 20010904//EN"
 "http://www.w3.org/TR/2001/REC-SVG-20010904/DTD/svg10.dtd">
<svg version="1.0" xmlns="http://www.w3.org/2000/svg"
 width="198.000000pt" height="198.000000pt" viewBox="0 0 198.000000 198.000000"
 preserveAspectRatio="xMidYMid meet">
<metadata>
Created by potrace 1.14, written by Peter Selinger 2001-2017
</metadata>
<g transform="translate(0.000000,198.000000) scale(0.100000,-0.100000)"
fill="#000000" stroke="none">
<path d="M839 1666 c-19 -25 -98 -141 -204 -296 -43 -63 -97 -142 -120 -175
-23 -33 -80 -117 -127 -186 -85 -125 -154 -225 -253 -369 -28 -41 -54 -80 -57
-85 -6 -10 316 -15 325 -5 15 17 157 241 157 249 0 5 4 11 8 13 5 2 29 35 54
73 69 107 150 234 187 292 19 29 40 54 47 57 12 5 63 -58 120 -149 10 -16 27
-39 36 -49 10 -11 18 -26 18 -33 0 -7 5 -13 10 -13 6 0 10 -5 10 -11 0 -11 24
-39 34 -39 3 0 25 28 48 62 24 33 58 82 76 107 38 53 37 89 -3 131 -14 14 -25
31 -25 37 0 6 -7 13 -15 17 -8 3 -15 10 -15 16 0 5 -8 19 -17 29 -29 32 -43
50 -43 56 0 3 -8 14 -17 24 -30 33 -43 50 -43 56 0 4 -7 13 -15 21 -8 8 -42
53 -75 99 -34 46 -66 85 -73 88 -7 2 -19 -5 -28 -17z"/>
<path d="M1508 1252 c-31 -48 -100 -154 -153 -237 -198 -305 -238 -365 -247
-365 -16 0 -88 89 -88 109 0 6 -4 11 -10 11 -5 0 -10 7 -10 15 0 8 -4 15 -10
15 -5 0 -10 6 -10 14 0 8 -3 16 -7 18 -11 5 -73 97 -73 108 0 6 -4 10 -8 10
-9 0 -130 -160 -153 -203 -15 -28 -15 -64 0 -77 3 -3 26 -32 51 -65 25 -33 48
-61 53 -63 4 -2 7 -10 7 -18 0 -8 7 -17 15 -20 8 -4 15 -12 15 -19 0 -7 7 -15
15 -19 8 -3 15 -12 15 -20 0 -7 7 -16 15 -20 8 -3 15 -12 15 -21 0 -8 5 -15
10 -15 6 0 13 -7 17 -16 3 -8 14 -25 24 -37 10 -12 37 -46 59 -74 60 -78 54
-81 175 97 44 63 119 174 168 245 49 72 127 186 173 255 47 69 132 193 189
275 57 83 111 162 119 178 l14 27 -161 0 -162 0 -57 -88z"/>
</g>
</svg>
