<?xml version="1.0" standalone="no"?>
<!DOCTYPE svg PUBLIC "-//W3C//DTD SVG 20010904//EN"
 "http://www.w3.org/TR/2001/REC-SVG-20010904/DTD/svg10.dtd">
<svg version="1.0" xmlns="http://www.w3.org/2000/svg"
 width="1056.000000pt" height="1056.000000pt" viewBox="0 0 1056.000000 1056.000000"
 preserveAspectRatio="xMidYMid meet">
<metadata>
Created by potrace 1.14, written by Peter Selinger 2001-2017
</metadata>
<g transform="translate(0.000000,1056.000000) scale(0.100000,-0.100000)"
fill="#000000" stroke="none">
<path d="M4534 8883 c-39 -48 -89 -113 -112 -143 -23 -30 -45 -59 -50 -65 -22
-29 -49 -65 -62 -85 -8 -12 -48 -66 -87 -120 -40 -55 -73 -101 -73 -104 0 -4
-8 -15 -17 -25 -28 -31 -40 -46 -52 -68 -6 -12 -17 -27 -23 -35 -7 -7 -29 -36
-47 -63 -19 -28 -37 -52 -40 -55 -4 -3 -10 -12 -16 -22 -16 -26 -168 -242
-174 -248 -3 -3 -20 -25 -36 -50 -17 -25 -34 -50 -40 -57 -11 -13 -11 -13
-181 -258 -68 -99 -131 -188 -139 -197 -8 -10 -11 -18 -7 -18 4 0 2 -4 -3 -8
-11 -8 -80 -102 -168 -232 -32 -47 -99 -143 -148 -215 -50 -71 -107 -155 -127
-185 -20 -30 -40 -57 -43 -60 -3 -3 -18 -25 -34 -49 -15 -25 -31 -49 -36 -55
-10 -12 -33 -45 -183 -266 -55 -80 -104 -148 -110 -152 -6 -4 -7 -8 -2 -8 5 0
0 -10 -11 -22 -11 -13 -60 -81 -109 -153 -48 -71 -111 -163 -139 -204 -27 -40
-54 -80 -60 -89 -5 -9 -18 -25 -27 -36 -10 -11 -20 -28 -24 -38 -3 -10 -9 -18
-14 -18 -4 0 -10 -8 -13 -17 -4 -10 -30 -52 -60 -93 -52 -73 -171 -246 -251
-365 -23 -33 -43 -62 -46 -65 -3 -3 -38 -54 -79 -115 -40 -60 -77 -111 -82
-113 -5 -2 -9 -8 -9 -14 0 -6 -23 -41 -50 -79 -28 -39 -56 -81 -62 -94 -6 -14
-15 -25 -19 -25 -4 0 -10 -8 -14 -19 -3 -10 -13 -28 -23 -39 -48 -57 -56 -67
-54 -70 2 -1 -5 -12 -14 -25 -25 -34 -285 -415 -398 -582 -55 -82 -104 -154
-109 -160 -18 -23 -157 -226 -157 -230 0 -8 -94 -140 -102 -143 -4 -2 -8 -8
-8 -13 0 -5 -29 -52 -65 -104 -36 -51 -65 -100 -65 -109 0 -25 66 -37 212 -40
57 -1 109 -5 116 -10 7 -4 12 -2 12 5 0 8 4 8 15 -1 8 -7 15 -9 15 -4 0 10 83
9 99 -1 6 -3 11 -3 11 2 0 10 111 10 127 0 5 -3 13 -4 17 0 5 6 246 11 758 16
98 1 178 6 178 10 0 4 6 4 14 0 8 -4 37 -6 65 -5 l50 4 66 99 c36 54 65 103
65 108 0 5 3 11 8 13 4 1 73 104 152 228 79 124 159 246 177 272 18 26 33 50
33 53 0 3 5 11 11 18 14 17 95 142 127 197 14 25 32 49 39 53 7 4 13 13 13 18
0 6 19 38 42 72 24 34 51 78 62 97 10 19 21 37 25 40 13 11 51 70 51 80 0 5 5
10 10 10 6 0 10 5 10 10 0 6 16 33 35 60 19 27 35 52 35 55 0 2 18 30 39 62
75 111 161 244 161 249 0 3 5 10 10 17 6 7 28 39 49 72 21 33 73 113 115 178
42 64 76 122 76 127 0 6 5 10 10 10 6 0 14 8 17 18 4 9 58 95 120 190 62 95
113 177 113 182 0 6 5 10 10 10 6 0 10 7 10 15 0 8 3 15 8 15 4 0 18 20 32 45
14 25 28 45 32 45 5 0 8 4 8 8 0 8 98 164 117 187 5 6 20 28 33 50 13 22 28
42 32 43 4 2 8 8 8 12 0 8 36 68 58 95 4 6 22 33 39 60 18 28 36 55 40 60 5 6
30 42 56 80 74 111 78 116 135 193 70 95 114 138 146 144 27 5 62 -26 136
-122 19 -25 37 -47 40 -50 3 -3 27 -34 53 -70 26 -36 54 -74 63 -85 39 -51
119 -166 253 -364 80 -119 149 -217 153 -219 4 -2 8 -8 8 -14 0 -8 77 -126
113 -173 4 -5 39 -55 77 -110 178 -258 258 -367 275 -377 12 -7 88 83 195 229
19 26 37 50 40 53 3 3 25 34 49 70 25 36 47 67 50 70 4 3 26 34 51 70 24 36
48 67 52 68 4 2 8 10 8 18 0 8 5 14 10 14 6 0 10 7 10 15 0 8 4 15 9 15 5 0
12 8 15 18 4 10 14 27 24 38 10 10 28 37 42 59 13 22 30 44 37 48 7 4 13 12
13 17 0 8 104 170 168 260 93 134 87 213 -31 398 -26 40 -47 77 -47 82 0 6 -4
10 -8 10 -4 0 -36 39 -70 88 -112 159 -185 257 -193 260 -5 2 -9 9 -9 14 0 6
-7 18 -15 27 -30 32 -95 121 -95 130 0 5 -4 11 -9 13 -12 4 -81 96 -81 107 0
5 -4 11 -9 13 -5 2 -52 62 -106 133 -124 166 -137 182 -155 205 -8 10 -22 28
-30 40 -8 12 -20 28 -25 34 -6 6 -40 49 -75 96 -36 46 -70 91 -77 100 -7 8
-26 33 -42 55 -17 22 -36 46 -43 54 -6 8 -42 55 -80 105 -79 105 -107 141
-128 165 -8 9 -28 35 -44 56 -17 22 -33 42 -36 45 -3 3 -17 21 -30 40 -13 19
-29 40 -35 46 -5 6 -23 28 -40 49 -16 21 -34 43 -40 49 -5 6 -32 40 -60 76
-27 36 -52 67 -55 70 -3 3 -37 44 -74 93 -38 48 -73 87 -78 87 -4 0 -8 6 -8
13 0 6 -22 34 -49 60 l-48 49 -69 -89z"/>
<path d="M8303 7062 c-39 -59 -107 -163 -151 -232 -45 -69 -85 -130 -90 -136
-5 -5 -15 -21 -22 -34 -7 -14 -19 -31 -27 -38 -7 -7 -13 -19 -13 -27 0 -7 -7
-15 -15 -19 -8 -3 -15 -12 -15 -21 0 -8 -4 -15 -9 -15 -5 0 -11 -8 -15 -17 -5
-18 -26 -53 -36 -63 -10 -10 -50 -69 -50 -74 0 -2 -22 -37 -49 -78 -26 -40
-70 -107 -96 -148 -26 -41 -74 -114 -107 -162 -32 -49 -58 -90 -58 -93 0 -2
-13 -24 -29 -47 -45 -65 -211 -320 -211 -323 0 -4 -108 -168 -120 -182 -5 -7
-10 -15 -10 -17 0 -3 -25 -42 -55 -87 -30 -45 -55 -83 -55 -84 0 -2 -31 -50
-68 -107 -38 -57 -124 -190 -193 -296 -125 -195 -139 -216 -173 -268 -10 -16
-48 -74 -84 -129 -36 -55 -87 -132 -114 -172 -26 -39 -48 -76 -48 -81 0 -6 -3
-12 -7 -14 -8 -3 -145 -203 -152 -222 -2 -6 -12 -19 -23 -30 -10 -11 -18 -26
-18 -33 0 -7 -4 -13 -10 -13 -5 0 -10 -6 -10 -14 0 -8 -3 -16 -7 -18 -5 -1
-26 -30 -48 -63 -22 -33 -43 -64 -48 -70 -4 -5 -32 -45 -63 -87 -64 -89 -88
-99 -144 -59 -71 50 -189 197 -366 456 -48 72 -92 132 -96 133 -4 2 -8 8 -8
14 0 8 -74 122 -90 138 -7 7 -29 42 -37 60 -4 8 -17 26 -30 40 -13 14 -23 28
-23 32 0 4 -15 28 -32 53 -18 26 -38 54 -43 63 -9 14 -68 102 -125 187 -8 12
-28 42 -45 66 -118 175 -199 273 -236 284 -24 8 -69 -12 -69 -31 0 -7 -4 -14
-8 -16 -5 -1 -56 -68 -115 -148 -59 -80 -115 -156 -124 -169 -99 -133 -361
-522 -408 -606 -16 -27 -34 -57 -40 -65 -17 -22 -68 -141 -68 -160 -1 -25 15
-70 24 -70 5 0 9 -5 9 -10 0 -14 120 -204 132 -208 4 -2 8 -10 8 -18 0 -8 5
-14 10 -14 6 0 10 -5 10 -10 0 -6 22 -41 50 -79 28 -38 50 -73 50 -79 0 -6 4
-12 8 -14 4 -1 75 -97 157 -213 82 -115 153 -214 158 -220 4 -5 26 -35 48 -65
21 -30 46 -64 55 -75 9 -11 39 -53 67 -92 28 -40 54 -73 59 -73 4 0 8 -7 8
-15 0 -8 5 -15 10 -15 6 0 10 -7 10 -15 0 -8 3 -15 8 -15 4 0 18 -17 32 -38
14 -20 27 -39 30 -42 3 -3 39 -50 80 -105 41 -55 79 -105 84 -111 6 -6 18 -22
26 -34 8 -12 35 -47 58 -78 24 -32 52 -68 63 -82 10 -14 47 -61 82 -106 34
-45 73 -96 87 -114 14 -18 71 -91 128 -163 56 -71 102 -134 102 -139 0 -5 5
-6 10 -3 6 3 10 2 10 -4 0 -24 296 -361 317 -361 15 0 101 99 176 201 54 74
129 176 140 189 7 8 30 42 52 75 22 33 45 65 50 70 6 6 26 34 45 62 19 29 38
53 43 53 4 0 7 5 7 10 0 8 64 103 97 145 9 11 81 117 98 143 6 9 20 27 33 41
12 14 22 31 22 38 0 6 4 13 8 15 4 2 48 61 96 132 49 71 100 146 115 167 14
20 33 47 41 59 8 12 27 39 41 59 53 76 134 193 144 209 6 10 13 19 16 22 3 3
19 25 35 49 68 104 175 258 226 328 21 29 38 55 38 58 0 4 19 32 43 63 24 31
52 72 62 90 11 17 23 32 28 32 4 0 6 4 3 9 -4 5 -3 11 2 13 4 1 23 27 42 56
18 28 37 52 42 52 4 0 8 5 8 10 0 6 12 28 28 49 15 21 33 47 40 57 6 11 46 68
87 127 41 59 75 112 75 118 0 5 3 9 8 9 4 0 27 32 51 70 24 39 48 70 53 70 4
0 8 5 8 10 0 12 33 61 64 98 11 12 16 22 13 22 -6 0 13 26 41 55 6 8 12 16 12
19 0 2 32 50 70 106 39 56 70 105 70 110 0 4 3 10 8 12 12 5 62 76 62 87 0 6
3 11 8 11 4 0 21 23 37 50 17 27 33 50 38 50 4 0 7 5 7 10 0 9 35 65 50 80 7
7 32 43 155 225 59 88 117 170 128 183 11 12 16 22 11 22 -5 0 -4 4 2 8 6 4
48 63 95 132 46 69 86 127 89 130 6 6 120 172 135 198 6 9 14 21 18 26 34 44
137 199 137 206 0 4 4 10 8 12 7 3 89 121 298 430 40 59 78 113 84 120 6 7 25
36 42 63 18 28 35 52 38 55 3 3 25 36 50 74 24 38 49 74 55 80 5 7 15 19 20
28 6 9 53 78 105 154 52 76 97 143 99 149 2 5 12 18 23 28 10 10 16 22 13 28
-4 5 -340 9 -853 9 l-848 -1 -71 -107z"/>
</g>
</svg>
